<svg width="75" height="25" viewBox="0 0 75 25" fill="none" xmlns="http://www.w3.org/2000/svg">
<path fill-rule="evenodd" clip-rule="evenodd" d="M15.2619 15.3626C14.4571 11.7246 13.8936 6.76273 13.8926 0C16.0637 0.124726 18.1172 0.9252 19.6654 2.26266C21.3551 3.72241 22.3043 5.70225 22.3043 7.76664C22.3043 9.83103 21.3551 11.8109 19.6654 13.2706C18.4474 14.3228 16.9166 15.0427 15.2619 15.3626Z" fill="url(#paint0_linear_5006_27661)"/>
<path d="M18.264 11.2065C20.6484 10.0225 20.6424 7.74674 20.6424 7.74674C20.6424 7.74674 18.0439 7.69076 16.8623 9.57533C15.4936 11.7575 14.2117 9.68446 14.1093 12.3544C14.1093 12.3544 15.3238 11.1459 15.8594 11.851C16.4769 12.488 15.098 13.5051 15.098 13.5051C17.7511 13.8098 15.9534 12.3507 18.264 11.2065ZM19.1327 9.02457C18.8894 8.64892 18.1107 8.90764 18.1107 8.90764C18.4258 8.21241 19.8003 8.44244 19.8003 8.44244C19.8003 8.44244 19.8383 9.83348 19.1064 10.0527C19.1033 10.0531 19.4687 9.316 19.1298 9.02406L19.1327 9.02457Z" fill="white"/>
<path fill-rule="evenodd" clip-rule="evenodd" d="M9.00992 0H6.90774C6.90774 5.44597 6.5276 9.70039 5.94568 13.0226L7.19669 12.2983L7.68513 12.0155L8.17966 12.2875L9.00992 12.7442V0ZM9.00992 15.0267L7.71034 14.312L5.40146 15.6487C3.36905 24.0158 0 24.778 0 24.778H9.00992V15.0267Z" fill="url(#paint1_linear_5006_27661)"/>
<path fill-rule="evenodd" clip-rule="evenodd" d="M10.5098 0H12.6119C12.6119 5.18069 12.9559 9.28309 13.4904 12.5305L11.3789 14.0482L10.5098 13.5702V0ZM10.5098 15.8527V24.778H19.5197C19.5197 24.778 15.8994 23.959 13.9006 14.6987L12.0336 16.0406L11.5211 16.409L10.9681 16.1048L10.5098 15.8527Z" fill="url(#paint2_linear_5006_27661)"/>
<path d="M32.0526 17.3892L30.0506 13.8532H29.1926V17.3892H27.3726V8.31516H30.7786C31.4806 8.31516 32.0786 8.44083 32.5726 8.69216C33.0666 8.93483 33.4349 9.26849 33.6776 9.69316C33.9289 10.1092 34.0546 10.5772 34.0546 11.0972C34.0546 11.6952 33.8813 12.2368 33.5346 12.7222C33.1879 13.1988 32.6723 13.5282 31.9876 13.7102L34.1586 17.3892H32.0526ZM29.1926 12.4882H30.7136C31.2076 12.4882 31.5759 12.3712 31.8186 12.1372C32.0613 11.8945 32.1826 11.5608 32.1826 11.1362C32.1826 10.7202 32.0613 10.3995 31.8186 10.1742C31.5759 9.94016 31.2076 9.82316 30.7136 9.82316H29.1926V12.4882ZM38.8987 17.5062C38.2054 17.5062 37.5814 17.3545 37.0267 17.0512C36.472 16.7392 36.0344 16.3015 35.7137 15.7382C35.4017 15.1748 35.2457 14.5248 35.2457 13.7882C35.2457 13.0515 35.406 12.4015 35.7267 11.8382C36.056 11.2748 36.5024 10.8415 37.0657 10.5382C37.629 10.2262 38.2574 10.0702 38.9507 10.0702C39.644 10.0702 40.2724 10.2262 40.8357 10.5382C41.399 10.8415 41.841 11.2748 42.1617 11.8382C42.491 12.4015 42.6557 13.0515 42.6557 13.7882C42.6557 14.5248 42.4867 15.1748 42.1487 15.7382C41.8194 16.3015 41.3687 16.7392 40.7967 17.0512C40.2334 17.3545 39.6007 17.5062 38.8987 17.5062ZM38.8987 15.9202C39.228 15.9202 39.5357 15.8422 39.8217 15.6862C40.1164 15.5215 40.3504 15.2788 40.5237 14.9582C40.697 14.6375 40.7837 14.2475 40.7837 13.7882C40.7837 13.1035 40.6017 12.5792 40.2377 12.2152C39.8824 11.8425 39.4447 11.6562 38.9247 11.6562C38.4047 11.6562 37.967 11.8425 37.6117 12.2152C37.265 12.5792 37.0917 13.1035 37.0917 13.7882C37.0917 14.4728 37.2607 15.0015 37.5987 15.3742C37.9454 15.7382 38.3787 15.9202 38.8987 15.9202ZM45.8108 11.2402C46.0448 10.8935 46.3654 10.6118 46.7728 10.3952C47.1888 10.1785 47.6611 10.0702 48.1898 10.0702C48.8051 10.0702 49.3598 10.2218 49.8538 10.5252C50.3564 10.8285 50.7508 11.2618 51.0368 11.8252C51.3314 12.3798 51.4788 13.0255 51.4788 13.7622C51.4788 14.4988 51.3314 15.1532 51.0368 15.7252C50.7508 16.2885 50.3564 16.7262 49.8538 17.0382C49.3598 17.3502 48.8051 17.5062 48.1898 17.5062C47.6524 17.5062 47.1801 17.4022 46.7728 17.1942C46.3741 16.9775 46.0534 16.7002 45.8108 16.3622V17.3892H43.9908V7.76916H45.8108V11.2402ZM49.6198 13.7622C49.6198 13.3288 49.5288 12.9562 49.3468 12.6442C49.1734 12.3235 48.9394 12.0808 48.6448 11.9162C48.3588 11.7515 48.0468 11.6692 47.7088 11.6692C47.3794 11.6692 47.0674 11.7558 46.7728 11.9292C46.4868 12.0938 46.2528 12.3365 46.0708 12.6572C45.8974 12.9778 45.8108 13.3548 45.8108 13.7882C45.8108 14.2215 45.8974 14.5985 46.0708 14.9192C46.2528 15.2398 46.4868 15.4868 46.7728 15.6602C47.0674 15.8248 47.3794 15.9072 47.7088 15.9072C48.0468 15.9072 48.3588 15.8205 48.6448 15.6472C48.9394 15.4738 49.1734 15.2268 49.3468 14.9062C49.5288 14.5855 49.6198 14.2042 49.6198 13.7622ZM55.9993 17.5062C55.306 17.5062 54.682 17.3545 54.1273 17.0512C53.5726 16.7392 53.135 16.3015 52.8143 15.7382C52.5023 15.1748 52.3463 14.5248 52.3463 13.7882C52.3463 13.0515 52.5066 12.4015 52.8273 11.8382C53.1566 11.2748 53.603 10.8415 54.1663 10.5382C54.7296 10.2262 55.358 10.0702 56.0513 10.0702C56.7446 10.0702 57.373 10.2262 57.9363 10.5382C58.4996 10.8415 58.9416 11.2748 59.2623 11.8382C59.5916 12.4015 59.7563 13.0515 59.7563 13.7882C59.7563 14.5248 59.5873 15.1748 59.2493 15.7382C58.92 16.3015 58.4693 16.7392 57.8973 17.0512C57.334 17.3545 56.7013 17.5062 55.9993 17.5062ZM55.9993 15.9202C56.3286 15.9202 56.6363 15.8422 56.9223 15.6862C57.217 15.5215 57.451 15.2788 57.6243 14.9582C57.7976 14.6375 57.8843 14.2475 57.8843 13.7882C57.8843 13.1035 57.7023 12.5792 57.3383 12.2152C56.983 11.8425 56.5453 11.6562 56.0253 11.6562C55.5053 11.6562 55.0676 11.8425 54.7123 12.2152C54.3656 12.5792 54.1923 13.1035 54.1923 13.7882C54.1923 14.4728 54.3613 15.0015 54.6993 15.3742C55.046 15.7382 55.4793 15.9202 55.9993 15.9202ZM62.9113 9.78416V12.0592H65.9663V13.5022H62.9113V15.9072H66.3563V17.3892H61.0913V8.30216H66.3563V9.78416H62.9113ZM71.9883 17.3892L70.5063 15.1532L69.1933 17.3892H67.2433L69.5963 13.7752L67.2173 10.1872H69.2713L70.7403 12.4102L72.0663 10.1872H74.0163L71.6503 13.7752L74.0423 17.3892H71.9883Z" fill="white"/>
<defs>
<linearGradient id="paint0_linear_5006_27661" x1="21.1782" y1="-0.665957" x2="21.1782" y2="14.9022" gradientUnits="userSpaceOnUse">
<stop stop-color="white"/>
<stop offset="1" stop-color="white" stop-opacity="0"/>
</linearGradient>
<linearGradient id="paint1_linear_5006_27661" x1="-0.0757139" y1="0.533488" x2="10.3693" y2="1.16267" gradientUnits="userSpaceOnUse">
<stop stop-color="#49E8F6"/>
<stop offset="1" stop-color="#0095F9"/>
</linearGradient>
<linearGradient id="paint2_linear_5006_27661" x1="10.4341" y1="0.533488" x2="20.8791" y2="1.16267" gradientUnits="userSpaceOnUse">
<stop stop-color="#49E8F6"/>
<stop offset="1" stop-color="#0095F9"/>
</linearGradient>
</defs>
</svg>
