<svg width="125" height="125" viewBox="0 0 125 125" fill="none" xmlns="http://www.w3.org/2000/svg">
<path d="M100.635 57.7643C112.075 52.0838 112.046 41.1649 112.046 41.1649C112.046 41.1649 99.5789 40.8964 93.9094 49.9383C87.3425 60.408 81.1924 50.4619 80.7009 63.2717C80.7009 63.2717 86.528 57.4735 89.098 60.8569C92.0604 63.9131 85.4447 68.793 85.4447 68.793C98.1739 70.2546 89.5488 63.2541 100.635 57.7643ZM104.803 47.2958C103.635 45.4935 99.8991 46.7348 99.8991 46.7348C101.411 43.3992 108.006 44.5028 108.006 44.5028C108.006 44.5028 108.188 51.1769 104.676 52.2285C104.662 52.2307 106.415 48.6941 104.789 47.2934L104.803 47.2958Z" fill="white"/>
<path fill-rule="evenodd" clip-rule="evenodd" d="M56.2285 4H46.1425C46.1425 32.1487 44.0258 53.6626 40.8623 70.0974L48.926 65.4288L49.9029 64.8633L50.892 65.4073L56.2285 68.3424V4ZM56.2285 72.9076L49.9533 69.4561L39.7802 75.346C30.1545 119.001 13 122.882 13 122.882H56.2285V72.9076Z" fill="url(#paint0_linear_7665_69656)"/>
<path fill-rule="evenodd" clip-rule="evenodd" d="M63.4473 4H73.5333C73.5333 30.5118 75.4109 51.138 78.2724 67.1784L67.7999 74.7057L63.4473 72.3117V4ZM63.4473 76.8768V122.882H106.676C106.676 122.882 88.5295 118.777 79.0915 71.5157L69.1095 78.6905L68.0844 79.4273L66.9783 78.8189L63.4473 76.8768Z" fill="url(#paint1_linear_7665_69656)"/>
<defs>
<linearGradient id="paint0_linear_7665_69656" x1="12.6367" y1="6.55961" x2="62.7509" y2="9.57834" gradientUnits="userSpaceOnUse">
<stop stop-color="#49E8F6"/>
<stop offset="1" stop-color="#0095F9"/>
</linearGradient>
<linearGradient id="paint1_linear_7665_69656" x1="63.084" y1="6.55961" x2="113.198" y2="9.57834" gradientUnits="userSpaceOnUse">
<stop stop-color="#49E8F6"/>
<stop offset="1" stop-color="#0095F9"/>
</linearGradient>
</defs>
</svg>
