<svg width="173" height="22" viewBox="0 0 173 22" fill="none" xmlns="http://www.w3.org/2000/svg">
<path d="M14.53 21.5992L9.4023 14.8965H5.27138V21.5992H0V0.658203H10.9415C13.7901 0.658203 16.0046 1.26639 17.5869 2.48278C19.1692 3.69917 19.9613 5.39645 19.9667 7.57306V7.63278C19.9667 9.32692 19.4943 10.7083 18.5478 11.7754C17.5923 12.8535 16.3063 13.6707 14.839 14.1327L20.6851 21.6118L14.53 21.5992ZM14.6342 7.80722C14.6342 6.80928 14.2696 6.06122 13.5386 5.56303C12.8076 5.06485 11.7947 4.81497 10.4961 4.81497H5.26599V10.8293H10.5967C11.897 10.8293 12.8938 10.559 13.5889 10.02C14.284 9.48093 14.6306 8.76273 14.6324 7.86694L14.6342 7.80722Z" fill="white"/>
<path d="M46.5313 15.2931C45.9009 16.5629 44.9921 17.7133 43.8588 18.6782C42.6878 19.6699 41.3048 20.4509 39.7907 20.9758C38.1509 21.5447 36.3998 21.8292 34.6361 21.8135C32.8777 21.8308 31.132 21.5463 29.4976 20.9758C27.9961 20.4509 26.6203 19.6809 25.4457 18.7081C24.3106 17.7589 23.4072 16.6179 22.7911 15.3528C22.1535 14.0453 21.832 12.6371 21.8428 11.2165V11.1567C21.832 9.73448 22.1607 8.3248 22.8109 7.0204C23.4431 5.75373 24.3483 4.60649 25.4798 3.64312C26.6508 2.6499 28.0338 1.86726 29.5497 1.33921C32.8616 0.220263 36.5309 0.220263 39.8428 1.33921C41.3443 1.86411 42.7183 2.63261 43.8929 3.60541C45.028 4.5562 45.9332 5.69715 46.5493 6.96225C47.1869 8.26979 47.5102 9.6779 47.4976 11.0986V11.1567C47.5102 12.5806 47.1797 13.9887 46.5313 15.2931ZM41.946 11.1567C41.9496 10.3002 41.7664 9.45161 41.4072 8.65483C41.0641 7.88633 40.5469 7.1854 39.8895 6.5945C38.5101 5.35768 36.6117 4.6662 34.6361 4.68035C33.6249 4.66778 32.6209 4.83907 31.687 5.18167C30.8266 5.49912 30.0526 5.9706 29.4114 6.56465C28.7756 7.15869 28.2727 7.85175 27.9278 8.60767C27.5668 9.39817 27.3836 10.2437 27.389 11.0954V11.1536C27.3854 12.0101 27.5686 12.8587 27.9278 13.6555C28.2727 14.424 28.7881 15.1249 29.4455 15.7174C30.1064 16.3083 30.8913 16.7829 31.757 17.1161C32.6873 17.4666 33.6914 17.6426 34.7043 17.63C35.7101 17.6394 36.7069 17.4697 37.6355 17.1302C38.5029 16.8128 39.2842 16.3413 39.929 15.7441C40.5648 15.1501 41.0659 14.457 41.4108 13.7011C41.7718 12.9106 41.955 12.0651 41.9496 11.2133L41.946 11.1567Z" fill="white"/>
<path d="M70.0451 18.3681C69.623 19.0879 68.9998 19.7055 68.2365 20.1628C67.3743 20.6736 66.4117 21.0397 65.3969 21.2456C64.1953 21.4955 62.9632 21.6149 61.7276 21.6055H50.3604V0.658203H61.4528C63.9098 0.658203 65.8387 1.14695 67.2378 2.12446C68.637 3.10197 69.3374 4.41894 69.3374 6.07379V6.13351C69.3464 6.67098 69.2602 7.20531 69.0824 7.71921C68.9225 8.15924 68.6926 8.57728 68.4017 8.96074C68.1269 9.3222 67.7946 9.64909 67.4174 9.9304C67.0475 10.2086 66.6434 10.449 66.2123 10.6486C67.5953 11.1075 68.6837 11.7314 69.4793 12.5188C70.275 13.3061 70.6719 14.3983 70.6701 15.7954V15.8552C70.6953 16.7258 70.4815 17.587 70.0451 18.3681ZM64.1396 6.85013C64.1396 6.15236 63.8433 5.61804 63.2506 5.24872C62.6579 4.8794 61.803 4.69396 60.6858 4.69553H55.4971V9.12262H60.3464C61.5085 9.12262 62.4316 8.94816 63.1159 8.59928C63.8002 8.25039 64.1432 7.68777 64.1414 6.90985L64.1396 6.85013ZM65.4723 15.2265C65.4974 14.5728 65.1526 13.952 64.5492 13.5654C63.9349 13.1568 62.9435 12.9525 61.5749 12.9525H55.4971V17.5603H61.7473C62.9093 17.5603 63.82 17.3749 64.4809 17.0056C65.1419 16.6362 65.4723 16.0626 65.4723 15.2863V15.2265Z" fill="white"/>
<path d="M96.6471 15.2931C95.3917 17.883 93.0084 19.9276 90.0251 20.9758C88.4176 21.5447 86.697 21.8292 84.962 21.8135C83.2324 21.8292 81.5172 21.5447 79.9151 20.9758C78.4352 20.4478 77.0863 19.6793 75.9369 18.7081C74.8161 17.7557 73.9289 16.6132 73.3272 15.3528C72.7004 14.0437 72.3843 12.6356 72.3968 11.2165V11.1567C72.3861 9.73605 72.7076 8.32794 73.3452 7.0204C74.6006 4.43047 76.984 2.38587 79.9672 1.33921C83.2163 0.220263 86.8281 0.220263 90.0772 1.33921C91.5554 1.86726 92.906 2.63576 94.0554 3.60541C95.1744 4.55934 96.0616 5.70029 96.6633 6.96225C97.2901 8.27136 97.608 9.67947 97.5954 11.0986V11.1567C97.608 12.579 97.2847 13.9871 96.6471 15.2931ZM92.1373 11.1567C92.1427 10.3018 91.9648 9.45318 91.6128 8.65483C90.9339 7.10684 89.5761 5.86217 87.8411 5.1974C86.9359 4.85008 85.957 4.67406 84.9674 4.68192C83.9724 4.66935 82.9864 4.84064 82.0722 5.18324C81.2245 5.50227 80.4629 5.97374 79.8361 6.56622C79.2093 7.16184 78.7154 7.8549 78.3795 8.60925C78.0257 9.40131 77.8479 10.2468 77.8551 11.097V11.1552C77.8497 12.0101 78.0275 12.8587 78.3795 13.6571C78.7172 14.424 79.2237 15.1249 79.8702 15.719C80.5168 16.3083 81.2873 16.7845 82.1386 17.1177C83.0492 17.4666 84.0353 17.641 85.0303 17.63C86.0181 17.6379 86.9952 17.4681 87.904 17.1302C88.7589 16.8128 89.5294 16.3397 90.1616 15.7441C90.7866 15.1469 91.2805 14.4554 91.6182 13.7011C91.9684 12.909 92.1445 12.0667 92.1373 11.2165V11.1567Z" fill="white"/>
<path d="M144.164 21.6212L132.574 8.35884V21.6149H127.377V0.658203H132.226L143.441 13.6864V0.658203H148.638V21.6228L144.164 21.6212Z" fill="white"/>
<path d="M172.283 16.4021C171.849 17.4943 171.141 18.486 170.211 19.3063C169.287 20.0968 168.168 20.6924 166.942 21.046C165.561 21.4436 164.115 21.6369 162.662 21.6212C159.494 21.6212 157.001 20.8543 155.181 19.322C153.362 17.7898 152.453 15.4969 152.451 12.4449V0.658203H157.64V12.3349C157.64 14.0259 158.089 15.2988 158.989 16.1538C159.889 17.0087 161.132 17.4362 162.721 17.4346C164.316 17.4346 165.562 17.0213 166.462 16.1962C167.362 15.3711 167.811 14.1327 167.811 12.481V0.658203H173V12.3035C173.005 13.8782 172.766 15.2438 172.283 16.4021Z" fill="white"/>
<path d="M112.634 0.682617H114.143V21.5954H107.677C107.677 21.5954 112.634 20.2768 112.634 0.682617Z" fill="#0096F2"/>
<path d="M119.311 0.682617H117.804V21.5954H124.27C124.27 21.5954 119.311 20.2768 119.311 0.682617Z" fill="#0096F2"/>
</svg>
