<svg width="18" height="19" viewBox="0 0 18 19" fill="none" xmlns="http://www.w3.org/2000/svg">
<path d="M1 16.0455V2.95455C1 2.15122 1.65122 1.5 2.45455 1.5H15.5455C16.3488 1.5 17 2.15122 17 2.95455V16.0455C17 16.8488 16.3488 17.5 15.5455 17.5H2.45455C1.65122 17.5 1 16.8488 1 16.0455Z" stroke="#A0AEC0" stroke-width="1.1"/>
<path d="M11.1816 5.86133H12.6362H14.0907" stroke="#A0AEC0" stroke-width="1.1" stroke-linecap="round" stroke-linejoin="round"/>
<path d="M11.1816 12.0469H12.6362H14.0907" stroke="#A0AEC0" stroke-width="1.1" stroke-linecap="round" stroke-linejoin="round"/>
<path d="M11.1816 14.2266H12.6362H14.0907" stroke="#A0AEC0" stroke-width="1.1" stroke-linecap="round" stroke-linejoin="round"/>
<path d="M3.90991 5.8647H5.36446M6.819 5.8647H5.36446M5.36446 5.8647V4.41016M5.36446 5.8647V7.31925" stroke="#A0AEC0" stroke-width="1.1" stroke-linecap="round" stroke-linejoin="round"/>
<path d="M4.33594 14.1664L5.36445 13.1379M6.39298 12.1094L5.36445 13.1379M5.36445 13.1379L4.33594 12.1094M5.36445 13.1379L6.39298 14.1664" stroke="#A0AEC0" stroke-width="1.1" stroke-linecap="round" stroke-linejoin="round"/>
</svg>
