<svg viewBox="0 0 70 70" fill="none" xmlns="http://www.w3.org/2000/svg">
<path d="M35 68.7899C35 69.4582 35.5421 70.0022 36.21 69.9791C43.4945 69.7272 50.5303 67.2061 56.3258 62.7527C62.4417 58.0531 66.8339 51.4649 68.8199 44.012C70.8059 36.5591 70.2744 28.6589 67.308 21.5392C64.3416 14.4195 59.1065 8.47898 52.4163 4.64094C45.7261 0.802901 37.9554 -0.71772 30.3119 0.315393C22.6685 1.34851 15.5803 4.87749 10.149 10.3539C4.71777 15.8303 1.24758 22.9474 0.277774 30.5992C-0.641236 37.8502 0.733844 45.1964 4.19342 51.6119C4.51063 52.2001 5.25385 52.3935 5.83078 52.0562C6.40772 51.7188 6.59977 50.9786 6.28407 50.3895C3.09284 44.4351 1.82685 37.6253 2.67879 30.9035C3.58154 23.7809 6.81177 17.1559 11.8675 12.0582C16.9232 6.96044 23.5212 3.67549 30.6361 2.71381C37.751 1.75214 44.9844 3.16761 51.212 6.74025C57.4396 10.3129 62.3127 15.8426 65.0739 22.47C67.8352 29.0974 68.3299 36.4513 66.4812 43.3888C64.6326 50.3264 60.5441 56.459 54.8511 60.8336C49.4785 64.962 42.9609 67.3065 36.2099 67.5573C35.5421 67.5821 35 68.1216 35 68.7899Z" fill="url(#paint0_linear_4936_32527)"/>
<path d="M35 68.7899C35 69.4582 35.5421 70.0022 36.21 69.9791C43.4945 69.7272 50.5303 67.2061 56.3258 62.7527C62.4417 58.0531 66.8339 51.4649 68.8199 44.012C70.8059 36.5591 70.2744 28.6589 67.308 21.5392C64.3416 14.4195 59.1065 8.47898 52.4163 4.64094C45.7261 0.802901 37.9554 -0.71772 30.3119 0.315393C22.6685 1.34851 15.5803 4.87749 10.149 10.3539C4.71777 15.8303 1.24758 22.9474 0.277774 30.5992C-0.641236 37.8502 0.733844 45.1964 4.19342 51.6119C4.51063 52.2001 5.25385 52.3935 5.83078 52.0562C6.40772 51.7188 6.59977 50.9786 6.28407 50.3895C3.09284 44.4351 1.82685 37.6253 2.67879 30.9035C3.58154 23.7809 6.81177 17.1559 11.8675 12.0582C16.9232 6.96044 23.5212 3.67549 30.6361 2.71381C37.751 1.75214 44.9844 3.16761 51.212 6.74025C57.4396 10.3129 62.3127 15.8426 65.0739 22.47C67.8352 29.0974 68.3299 36.4513 66.4812 43.3888C64.6326 50.3264 60.5441 56.459 54.8511 60.8336C49.4785 64.962 42.9609 67.3065 36.2099 67.5573C35.5421 67.5821 35 68.1216 35 68.7899Z" fill="black" fill-opacity="0.05"/>
<defs>
<linearGradient id="paint0_linear_4936_32527" x1="-1.05191" y1="8.24615e-06" x2="71.5214" y2="1.6146" gradientUnits="userSpaceOnUse">
<stop stop-color="#0096F2"/>
<stop offset="1" stop-color="#7AE6F4"/>
</linearGradient>
</defs>
</svg>
