<svg  viewBox="0 0 32 32" fill="none" xmlns="http://www.w3.org/2000/svg">
<path d="M26.6068 5.39333C27.9996 6.78622 29.1045 8.43982 29.8584 10.2597C30.6122 12.0796 31.0002 14.0302 31.0002 16C31.0002 17.9698 30.6122 19.9204 29.8584 21.7403C29.1045 23.5602 27.9996 25.2138 26.6068 26.6067C25.2139 27.9996 23.5603 29.1045 21.7404 29.8583C19.9205 30.6121 17.9699 31.0001 16.0001 31.0001C14.0303 31.0001 12.0797 30.6121 10.2598 29.8583C8.43991 29.1045 6.78631 27.9996 5.39343 26.6067C2.58036 23.7936 1 19.9783 1 16C1 12.0217 2.58036 8.2064 5.39343 5.39333C8.20649 2.58027 12.0218 0.999908 16.0001 0.999908C19.9784 0.999908 23.7937 2.58027 26.6068 5.39333" stroke="white" stroke-width="1.5" stroke-linecap="round" stroke-linejoin="round"/>
<path d="M24.8441 28.095C24.2041 25.0283 20.5074 22.6667 15.9991 22.6667C11.4907 22.6667 7.79405 25.0283 7.15405 28.095" stroke="white" stroke-width="1.5" stroke-linecap="round" stroke-linejoin="round"/>
<path d="M19.5345 9.13167C20.0201 9.59091 20.4086 10.1428 20.6772 10.7548C20.9458 11.3668 21.0889 12.0264 21.0982 12.6946C21.1075 13.3629 20.9827 14.0262 20.7313 14.6454C20.4798 15.2646 20.1068 15.8271 19.6342 16.2997C19.1617 16.7723 18.5992 17.1453 17.9799 17.3967C17.3607 17.6482 16.6974 17.773 16.0292 17.7637C15.3609 17.7544 14.7013 17.6112 14.0893 17.3426C13.4774 17.0741 12.9255 16.6855 12.4662 16.2C11.583 15.2522 11.1022 13.9985 11.125 12.7032C11.1479 11.4078 11.6726 10.1719 12.5887 9.25585C13.5048 8.33977 14.7407 7.81502 16.0361 7.79217C17.3314 7.76931 18.585 8.25013 19.5329 9.13333" stroke="white" stroke-width="1.5" stroke-linecap="round" stroke-linejoin="round"/>
</svg>
