<svg width="24" height="24" viewBox="0 0 24 24" fill="none" xmlns="http://www.w3.org/2000/svg">
<path d="M17.2326 6.76741C17.4669 6.53309 17.8487 6.53171 18.0648 6.78292C18.9615 7.8253 19.5767 9.0841 19.8463 10.4393C20.155 11.9911 19.9965 13.5997 19.391 15.0615C18.7855 16.5233 17.7602 17.7727 16.4446 18.6518C15.129 19.5308 13.5823 20 12 20C10.4178 20 8.87103 19.5308 7.55544 18.6518C6.23985 17.7727 5.21447 16.5233 4.60897 15.0615C4.00346 13.5997 3.84504 11.9911 4.15372 10.4393C4.42328 9.0841 5.03848 7.8253 5.93517 6.78292C6.15127 6.53171 6.53309 6.5331 6.76741 6.76741C7.00172 7.00173 6.9994 7.38006 6.78665 7.63411C6.05605 8.50651 5.5539 9.55107 5.33066 10.6734C5.06828 11.9925 5.20294 13.3597 5.71762 14.6023C6.2323 15.8448 7.10387 16.9068 8.22212 17.654C9.34038 18.4012 10.6551 18.8 12 18.8C13.3449 18.8 14.6596 18.4012 15.7779 17.654C16.8961 16.9068 17.7677 15.8448 18.2824 14.6022C18.7971 13.3597 18.9317 11.9925 18.6693 10.6734C18.4461 9.55106 17.944 8.50651 17.2133 7.6341C17.0006 7.38005 16.9983 7.00172 17.2326 6.76741Z" fill="white"/>
<rect x="11.5293" y="4" width="1.31765" height="7.52941" rx="0.658823" fill="white"/>
</svg>
