<svg width="24" height="24" viewBox="0 0 24 24" fill="none" xmlns="http://www.w3.org/2000/svg">
<path d="M9.03601 9.95441C11.3751 9.95441 13.2712 11.8506 13.2712 14.1896C13.2712 15.1684 12.9392 16.0696 12.3817 16.7868L16.2904 20.6955C16.4972 20.9023 16.4972 21.2375 16.2904 21.4442C16.0836 21.6509 15.7485 21.6509 15.5417 21.4442L11.633 17.5355C10.9158 18.0929 10.0147 18.4249 9.03601 18.4249C6.69696 18.4249 4.80078 16.5286 4.80078 14.1896C4.80078 11.8506 6.69696 9.95441 9.03601 9.95441ZM13.8915 3.60156C14.3127 3.60156 14.7166 3.7689 15.0145 4.06674L19.159 8.21113C19.4568 8.50899 19.6241 8.91295 19.6241 9.33417V18.9543C19.6241 19.8314 18.913 20.5425 18.0359 20.5425H17.4146C17.3382 20.325 17.2131 20.1208 17.0391 19.9468L16.576 19.4837H18.0359C18.3282 19.4837 18.5653 19.2466 18.5653 18.9543V9.95441H14.8595C13.9823 9.95441 13.2712 9.24334 13.2712 8.3662V4.66037H8.50661C8.21423 4.66037 7.9772 4.89739 7.9772 5.18977V9.0015C7.60895 9.07625 7.25457 9.18923 6.9184 9.33611V5.18977C6.9184 4.31263 7.62946 3.60156 8.50661 3.60156H13.8915ZM9.03601 11.0132C7.28173 11.0132 5.85959 12.4353 5.85959 14.1896C5.85959 15.944 7.28173 17.3661 9.03601 17.3661C10.7903 17.3661 12.2124 15.944 12.2124 14.1896C12.2124 12.4353 10.7903 11.0132 9.03601 11.0132ZM14.33 4.87966V8.3662C14.33 8.65858 14.5671 8.8956 14.8595 8.8956H18.346L14.33 4.87966Z" fill="white"/>
</svg>
