<svg width="24" height="24" viewBox="0 0 24 24" fill="none" xmlns="http://www.w3.org/2000/svg">
<path d="M9.03601 9.95245C11.3751 9.95245 13.2712 11.8486 13.2712 14.1877C13.2712 15.1664 12.9392 16.0676 12.3817 16.7848L16.2904 20.6935C16.4972 20.9003 16.4972 21.2355 16.2904 21.4422C16.0836 21.649 15.7485 21.649 15.5417 21.4422L11.633 17.5335C10.9158 18.091 10.0147 18.4229 9.03601 18.4229C6.69696 18.4229 4.80078 16.5267 4.80078 14.1877C4.80078 11.8486 6.69696 9.95245 9.03601 9.95245ZM13.8915 3.59961C14.3127 3.59961 14.7166 3.76694 15.0145 4.06479L19.159 8.20918C19.4568 8.50703 19.6241 8.911 19.6241 9.33222V18.9523C19.6241 19.8294 18.913 20.5405 18.0359 20.5405H17.4146C17.3382 20.323 17.2131 20.1188 17.0391 19.9448L16.576 19.4817H18.0359C18.3282 19.4817 18.5653 19.2447 18.5653 18.9523V9.95245H14.8595C13.9823 9.95245 13.2712 9.24139 13.2712 8.36424V4.65842H8.50661C8.21423 4.65842 7.9772 4.89544 7.9772 5.18782V8.99955C7.60895 9.0743 7.25457 9.18728 6.9184 9.33415V5.18782C6.9184 4.31067 7.62946 3.59961 8.50661 3.59961H13.8915ZM9.03601 11.0113C7.28173 11.0113 5.85959 12.4333 5.85959 14.1877C5.85959 15.942 7.28173 17.3641 9.03601 17.3641C10.7903 17.3641 12.2124 15.942 12.2124 14.1877C12.2124 12.4333 10.7903 11.0113 9.03601 11.0113ZM14.33 4.87771V8.36424C14.33 8.65662 14.5671 8.89365 14.8595 8.89365H18.346L14.33 4.87771Z" fill="url(#paint0_linear_4131_28314)"/>
<path d="M9.03601 9.95245C11.3751 9.95245 13.2712 11.8486 13.2712 14.1877C13.2712 15.1664 12.9392 16.0676 12.3817 16.7848L16.2904 20.6935C16.4972 20.9003 16.4972 21.2355 16.2904 21.4422C16.0836 21.649 15.7485 21.649 15.5417 21.4422L11.633 17.5335C10.9158 18.091 10.0147 18.4229 9.03601 18.4229C6.69696 18.4229 4.80078 16.5267 4.80078 14.1877C4.80078 11.8486 6.69696 9.95245 9.03601 9.95245ZM13.8915 3.59961C14.3127 3.59961 14.7166 3.76694 15.0145 4.06479L19.159 8.20918C19.4568 8.50703 19.6241 8.911 19.6241 9.33222V18.9523C19.6241 19.8294 18.913 20.5405 18.0359 20.5405H17.4146C17.3382 20.323 17.2131 20.1188 17.0391 19.9448L16.576 19.4817H18.0359C18.3282 19.4817 18.5653 19.2447 18.5653 18.9523V9.95245H14.8595C13.9823 9.95245 13.2712 9.24139 13.2712 8.36424V4.65842H8.50661C8.21423 4.65842 7.9772 4.89544 7.9772 5.18782V8.99955C7.60895 9.0743 7.25457 9.18728 6.9184 9.33415V5.18782C6.9184 4.31067 7.62946 3.59961 8.50661 3.59961H13.8915ZM9.03601 11.0113C7.28173 11.0113 5.85959 12.4333 5.85959 14.1877C5.85959 15.942 7.28173 17.3641 9.03601 17.3641C10.7903 17.3641 12.2124 15.942 12.2124 14.1877C12.2124 12.4333 10.7903 11.0113 9.03601 11.0113ZM14.33 4.87771V8.36424C14.33 8.65662 14.5671 8.89365 14.8595 8.89365H18.346L14.33 4.87771Z" fill="black" fill-opacity="0.05"/>
<defs>
<linearGradient id="paint0_linear_4131_28314" x1="4.57803" y1="3.59961" x2="19.9487" y2="3.88126" gradientUnits="userSpaceOnUse">
<stop stop-color="#0096F2"/>
<stop offset="1" stop-color="#7AE6F4"/>
</linearGradient>
</defs>
</svg>
