<svg width="24" height="24" viewBox="0 0 24 24" fill="none" xmlns="http://www.w3.org/2000/svg">
<path d="M20.3779 8.54281L19.0758 9.71444C19.6699 10.9003 20.4595 12.8073 20.4211 14.1333C20.3826 15.4594 19.7376 17.2506 19.0758 18.4H4.63158C3.77134 16.9066 3.37878 14.7788 3.57895 13.0667C3.77912 11.3546 4.50272 9.52104 5.68421 8.26667C6.86571 7.01229 8.72502 5.90106 10.4211 5.6C12.1171 5.29894 14.67 5.89547 16.2105 6.66667L17.4231 5.5858C15.5365 4.37514 13.2987 3.83264 11.0676 4.04508C8.83654 4.25751 6.74112 5.21261 5.11652 6.75759C3.49192 8.30257 2.43201 10.3482 2.10634 12.5672C1.78066 14.7862 2.20804 17.0504 3.3201 18.9976C3.49489 19.3006 3.74588 19.5525 4.04811 19.7284C4.35035 19.9042 4.69331 19.9979 5.0429 20H18.9155C19.2685 20.0014 19.6156 19.9094 19.9217 19.7334C20.2277 19.5574 20.4819 19.3035 20.6583 18.9976C21.5812 17.3977 22.0444 15.5738 21.9967 13.7271C21.9489 11.8804 21.3922 10.0828 20.3879 8.53279L20.3779 8.54281ZM10.5719 15.3991C10.758 15.5855 10.9789 15.7333 11.2221 15.8342C11.4653 15.9351 11.726 15.987 11.9892 15.987C12.2525 15.987 12.5132 15.9351 12.7564 15.8342C12.9995 15.7333 13.2205 15.5855 13.4065 15.3991L19.0758 6.88889L10.5719 12.5623C10.3857 12.7485 10.2379 12.9696 10.1371 13.213C10.0363 13.4564 9.98438 13.7173 9.98438 13.9807C9.98438 14.2442 10.0363 14.505 10.1371 14.7484C10.2379 14.9918 10.3857 15.2129 10.5719 15.3991Z" fill="url(#paint0_linear_4125_28081)"/>
<path d="M20.3779 8.54281L19.0758 9.71444C19.6699 10.9003 20.4595 12.8073 20.4211 14.1333C20.3826 15.4594 19.7376 17.2506 19.0758 18.4H4.63158C3.77134 16.9066 3.37878 14.7788 3.57895 13.0667C3.77912 11.3546 4.50272 9.52104 5.68421 8.26667C6.86571 7.01229 8.72502 5.90106 10.4211 5.6C12.1171 5.29894 14.67 5.89547 16.2105 6.66667L17.4231 5.5858C15.5365 4.37514 13.2987 3.83264 11.0676 4.04508C8.83654 4.25751 6.74112 5.21261 5.11652 6.75759C3.49192 8.30257 2.43201 10.3482 2.10634 12.5672C1.78066 14.7862 2.20804 17.0504 3.3201 18.9976C3.49489 19.3006 3.74588 19.5525 4.04811 19.7284C4.35035 19.9042 4.69331 19.9979 5.0429 20H18.9155C19.2685 20.0014 19.6156 19.9094 19.9217 19.7334C20.2277 19.5574 20.4819 19.3035 20.6583 18.9976C21.5812 17.3977 22.0444 15.5738 21.9967 13.7271C21.9489 11.8804 21.3922 10.0828 20.3879 8.53279L20.3779 8.54281ZM10.5719 15.3991C10.758 15.5855 10.9789 15.7333 11.2221 15.8342C11.4653 15.9351 11.726 15.987 11.9892 15.987C12.2525 15.987 12.5132 15.9351 12.7564 15.8342C12.9995 15.7333 13.2205 15.5855 13.4065 15.3991L19.0758 6.88889L10.5719 12.5623C10.3857 12.7485 10.2379 12.9696 10.1371 13.213C10.0363 13.4564 9.98438 13.7173 9.98438 13.9807C9.98438 14.2442 10.0363 14.505 10.1371 14.7484C10.2379 14.9918 10.3857 15.2129 10.5719 15.3991Z" fill="black" fill-opacity="0.05"/>
<defs>
<linearGradient id="paint0_linear_4125_28081" x1="1.69945" y1="4" x2="22.4289" y2="4.57648" gradientUnits="userSpaceOnUse">
<stop stop-color="#0096F2"/>
<stop offset="1" stop-color="#7AE6F4"/>
</linearGradient>
</defs>
</svg>
