<svg width="24" height="24" viewBox="0 0 24 24" fill="none" xmlns="http://www.w3.org/2000/svg">
<path d="M14.8901 5.08039C14.0201 4.82039 13.0601 4.65039 12.0001 4.65039C7.21008 4.65039 3.33008 8.53039 3.33008 13.3204C3.33008 18.1204 7.21008 22.0004 12.0001 22.0004C16.7901 22.0004 20.6701 18.1204 20.6701 13.3304C20.6701 11.5504 20.1301 9.89039 19.2101 8.51039" stroke="url(#paint0_linear_4125_28094)" stroke-width="1.5" stroke-linecap="round" stroke-linejoin="round"/>
<path d="M14.8901 5.08039C14.0201 4.82039 13.0601 4.65039 12.0001 4.65039C7.21008 4.65039 3.33008 8.53039 3.33008 13.3204C3.33008 18.1204 7.21008 22.0004 12.0001 22.0004C16.7901 22.0004 20.6701 18.1204 20.6701 13.3304C20.6701 11.5504 20.1301 9.89039 19.2101 8.51039" stroke="black" stroke-opacity="0.05" stroke-width="1.5" stroke-linecap="round" stroke-linejoin="round"/>
<path d="M16.1302 5.32L13.2402 2" stroke="url(#paint1_linear_4125_28094)" stroke-width="1.5" stroke-linecap="round" stroke-linejoin="round"/>
<path d="M16.1302 5.32L13.2402 2" stroke="black" stroke-opacity="0.05" stroke-width="1.5" stroke-linecap="round" stroke-linejoin="round"/>
<path d="M16.1298 5.32031L12.7598 7.78031" stroke="url(#paint2_linear_4125_28094)" stroke-width="1.5" stroke-linecap="round" stroke-linejoin="round"/>
<path d="M16.1298 5.32031L12.7598 7.78031" stroke="black" stroke-opacity="0.05" stroke-width="1.5" stroke-linecap="round" stroke-linejoin="round"/>
<defs>
<linearGradient id="paint0_linear_4125_28094" x1="3.0695" y1="4.65039" x2="21.047" y2="5.05012" gradientUnits="userSpaceOnUse">
<stop stop-color="#0096F2"/>
<stop offset="1" stop-color="#7AE6F4"/>
</linearGradient>
<linearGradient id="paint1_linear_4125_28094" x1="13.1968" y1="2" x2="16.1934" y2="2.05803" gradientUnits="userSpaceOnUse">
<stop stop-color="#0096F2"/>
<stop offset="1" stop-color="#7AE6F4"/>
</linearGradient>
<linearGradient id="paint2_linear_4125_28094" x1="12.7091" y1="5.32031" x2="16.2015" y2="5.42675" gradientUnits="userSpaceOnUse">
<stop stop-color="#0096F2"/>
<stop offset="1" stop-color="#7AE6F4"/>
</linearGradient>
</defs>
</svg>
