<svg width="12" height="13" viewBox="0 0 12 13" fill="none" xmlns="http://www.w3.org/2000/svg">
<path d="M8.94723 4.67864C9.82498 4.67864 10.5365 3.96707 10.5365 3.08932C10.5365 2.21156 9.82498 1.5 8.94723 1.5C8.06947 1.5 7.35791 2.21156 7.35791 3.08932C7.35791 3.96707 8.06947 4.67864 8.94723 4.67864Z" stroke="#EDF2F7" stroke-width="1.4" stroke-linecap="round" stroke-linejoin="round"/>
<path d="M2.58932 8.38664C3.46707 8.38664 4.17864 7.67508 4.17864 6.79733C4.17864 5.91957 3.46707 5.20801 2.58932 5.20801C1.71156 5.20801 1 5.91957 1 6.79733C1 7.67508 1.71156 8.38664 2.58932 8.38664Z" stroke="#EDF2F7" stroke-width="1.4" stroke-linecap="round" stroke-linejoin="round"/>
<path d="M8.94723 12.0947C9.82498 12.0947 10.5365 11.3831 10.5365 10.5053C10.5365 9.62758 9.82498 8.91602 8.94723 8.91602C8.06947 8.91602 7.35791 9.62758 7.35791 10.5053C7.35791 11.3831 8.06947 12.0947 8.94723 12.0947Z" stroke="#EDF2F7" stroke-width="1.4" stroke-linecap="round" stroke-linejoin="round"/>
<path d="M3.96191 7.59766L7.58026 9.70615" stroke="#EDF2F7" stroke-width="1.4" stroke-linecap="round" stroke-linejoin="round"/>
<path d="M7.57496 3.88965L3.96191 5.99814" stroke="#EDF2F7" stroke-width="1.4" stroke-linecap="round" stroke-linejoin="round"/>
</svg>
