<svg width="24" height="24" viewBox="0 0 24 24" fill="none" xmlns="http://www.w3.org/2000/svg">
<path d="M12.3798 17.9548C12.1466 17.8319 11.8678 17.8318 11.6345 17.9544L7.75588 19.9937C7.16897 20.3022 6.483 19.8039 6.59511 19.1503L7.33606 14.8309C7.38061 14.5712 7.29441 14.3062 7.10559 14.1224L3.9639 11.0643C3.48848 10.6015 3.75056 9.79447 4.40716 9.69931L8.74125 9.07118C9.00194 9.0334 9.22732 8.86971 9.3439 8.6335L11.2834 4.70361C11.5768 4.10901 12.4247 4.10901 12.7182 4.70361L14.6577 8.6335C14.7742 8.86971 14.9996 9.0334 15.2603 9.07118L19.5944 9.69931C20.251 9.79447 20.5131 10.6015 20.0377 11.0643L16.896 14.1224C16.7072 14.3062 16.621 14.5712 16.6655 14.8309L17.4061 19.1484C17.5183 19.8023 16.8316 20.3007 16.2447 19.9914L12.3798 17.9548Z" fill="url(#paint0_linear_4131_28212)"/>
<path d="M12.3798 17.9548C12.1466 17.8319 11.8678 17.8318 11.6345 17.9544L7.75588 19.9937C7.16897 20.3022 6.483 19.8039 6.59511 19.1503L7.33606 14.8309C7.38061 14.5712 7.29441 14.3062 7.10559 14.1224L3.9639 11.0643C3.48848 10.6015 3.75056 9.79447 4.40716 9.69931L8.74125 9.07118C9.00194 9.0334 9.22732 8.86971 9.3439 8.6335L11.2834 4.70361C11.5768 4.10901 12.4247 4.10901 12.7182 4.70361L14.6577 8.6335C14.7742 8.86971 14.9996 9.0334 15.2603 9.07118L19.5944 9.69931C20.251 9.79447 20.5131 10.6015 20.0377 11.0643L16.896 14.1224C16.7072 14.3062 16.621 14.5712 16.6655 14.8309L17.4061 19.1484C17.5183 19.8023 16.8316 20.3007 16.2447 19.9914L12.3798 17.9548Z" fill="black" fill-opacity="0.05"/>
<path d="M12.3798 17.9548C12.1466 17.8319 11.8678 17.8318 11.6345 17.9544L7.75588 19.9937C7.16897 20.3022 6.483 19.8039 6.59511 19.1503L7.33606 14.8309C7.38061 14.5712 7.29441 14.3062 7.10559 14.1224L3.9639 11.0643C3.48848 10.6015 3.75056 9.79447 4.40716 9.69931L8.74125 9.07118C9.00194 9.0334 9.22732 8.86971 9.3439 8.6335L11.2834 4.70361C11.5768 4.10901 12.4247 4.10901 12.7182 4.70361L14.6577 8.6335C14.7742 8.86971 14.9996 9.0334 15.2603 9.07118L19.5944 9.69931C20.251 9.79447 20.5131 10.6015 20.0377 11.0643L16.896 14.1224C16.7072 14.3062 16.621 14.5712 16.6655 14.8309L17.4061 19.1484C17.5183 19.8023 16.8316 20.3007 16.2447 19.9914L12.3798 17.9548Z" stroke="url(#paint1_linear_4131_28212)" stroke-width="1.2" stroke-linecap="round" stroke-linejoin="round"/>
<path d="M12.3798 17.9548C12.1466 17.8319 11.8678 17.8318 11.6345 17.9544L7.75588 19.9937C7.16897 20.3022 6.483 19.8039 6.59511 19.1503L7.33606 14.8309C7.38061 14.5712 7.29441 14.3062 7.10559 14.1224L3.9639 11.0643C3.48848 10.6015 3.75056 9.79447 4.40716 9.69931L8.74125 9.07118C9.00194 9.0334 9.22732 8.86971 9.3439 8.6335L11.2834 4.70361C11.5768 4.10901 12.4247 4.10901 12.7182 4.70361L14.6577 8.6335C14.7742 8.86971 14.9996 9.0334 15.2603 9.07118L19.5944 9.69931C20.251 9.79447 20.5131 10.6015 20.0377 11.0643L16.896 14.1224C16.7072 14.3062 16.621 14.5712 16.6655 14.8309L17.4061 19.1484C17.5183 19.8023 16.8316 20.3007 16.2447 19.9914L12.3798 17.9548Z" stroke="black" stroke-opacity="0.05" stroke-width="1.2" stroke-linecap="round" stroke-linejoin="round"/>
<defs>
<linearGradient id="paint0_linear_4131_28212" x1="2.52428" y1="3.25" x2="21.5997" y2="3.69626" gradientUnits="userSpaceOnUse">
<stop stop-color="#0096F2"/>
<stop offset="1" stop-color="#7AE6F4"/>
</linearGradient>
<linearGradient id="paint1_linear_4131_28212" x1="2.52428" y1="3.25" x2="21.5997" y2="3.69626" gradientUnits="userSpaceOnUse">
<stop stop-color="#0096F2"/>
<stop offset="1" stop-color="#7AE6F4"/>
</linearGradient>
</defs>
</svg>
