<svg width="24" height="24" viewBox="0 0 24 24" fill="none" xmlns="http://www.w3.org/2000/svg">
<path d="M16.9609 6.16992C18.9609 7.55992 20.3409 9.76992 20.6209 12.3199" stroke="url(#paint0_linear_5005_26808)" stroke-width="1.2" stroke-linecap="round" stroke-linejoin="round"/>
<path d="M16.9609 6.16992C18.9609 7.55992 20.3409 9.76992 20.6209 12.3199" stroke="black" stroke-opacity="0.05" stroke-width="1.2" stroke-linecap="round" stroke-linejoin="round"/>
<path d="M3.49023 12.3702C3.75023 9.83021 5.11023 7.62021 7.09023 6.22021" stroke="url(#paint1_linear_5005_26808)" stroke-width="1.2" stroke-linecap="round" stroke-linejoin="round"/>
<path d="M3.49023 12.3702C3.75023 9.83021 5.11023 7.62021 7.09023 6.22021" stroke="black" stroke-opacity="0.05" stroke-width="1.2" stroke-linecap="round" stroke-linejoin="round"/>
<path d="M8.18945 20.9399C9.34945 21.5299 10.6695 21.8599 12.0595 21.8599C13.3995 21.8599 14.6595 21.5599 15.7895 21.0099" stroke="url(#paint2_linear_5005_26808)" stroke-width="1.2" stroke-linecap="round" stroke-linejoin="round"/>
<path d="M8.18945 20.9399C9.34945 21.5299 10.6695 21.8599 12.0595 21.8599C13.3995 21.8599 14.6595 21.5599 15.7895 21.0099" stroke="black" stroke-opacity="0.05" stroke-width="1.2" stroke-linecap="round" stroke-linejoin="round"/>
<path d="M12.0593 7.70014C13.5946 7.70014 14.8393 6.45549 14.8393 4.92014C14.8393 3.38479 13.5946 2.14014 12.0593 2.14014C10.5239 2.14014 9.2793 3.38479 9.2793 4.92014C9.2793 6.45549 10.5239 7.70014 12.0593 7.70014Z" stroke="url(#paint3_linear_5005_26808)" stroke-width="1.2" stroke-linecap="round" stroke-linejoin="round"/>
<path d="M12.0593 7.70014C13.5946 7.70014 14.8393 6.45549 14.8393 4.92014C14.8393 3.38479 13.5946 2.14014 12.0593 2.14014C10.5239 2.14014 9.2793 3.38479 9.2793 4.92014C9.2793 6.45549 10.5239 7.70014 12.0593 7.70014Z" stroke="black" stroke-opacity="0.05" stroke-width="1.2" stroke-linecap="round" stroke-linejoin="round"/>
<path d="M4.83078 19.9199C6.36613 19.9199 7.61078 18.6752 7.61078 17.1399C7.61078 15.6045 6.36613 14.3599 4.83078 14.3599C3.29543 14.3599 2.05078 15.6045 2.05078 17.1399C2.05078 18.6752 3.29543 19.9199 4.83078 19.9199Z" stroke="url(#paint4_linear_5005_26808)" stroke-width="1.2" stroke-linecap="round" stroke-linejoin="round"/>
<path d="M4.83078 19.9199C6.36613 19.9199 7.61078 18.6752 7.61078 17.1399C7.61078 15.6045 6.36613 14.3599 4.83078 14.3599C3.29543 14.3599 2.05078 15.6045 2.05078 17.1399C2.05078 18.6752 3.29543 19.9199 4.83078 19.9199Z" stroke="black" stroke-opacity="0.05" stroke-width="1.2" stroke-linecap="round" stroke-linejoin="round"/>
<path d="M19.1706 19.9199C20.706 19.9199 21.9506 18.6752 21.9506 17.1399C21.9506 15.6045 20.706 14.3599 19.1706 14.3599C17.6353 14.3599 16.3906 15.6045 16.3906 17.1399C16.3906 18.6752 17.6353 19.9199 19.1706 19.9199Z" stroke="url(#paint5_linear_5005_26808)" stroke-width="1.2" stroke-linecap="round" stroke-linejoin="round"/>
<path d="M19.1706 19.9199C20.706 19.9199 21.9506 18.6752 21.9506 17.1399C21.9506 15.6045 20.706 14.3599 19.1706 14.3599C17.6353 14.3599 16.3906 15.6045 16.3906 17.1399C16.3906 18.6752 17.6353 19.9199 19.1706 19.9199Z" stroke="black" stroke-opacity="0.05" stroke-width="1.2" stroke-linecap="round" stroke-linejoin="round"/>
<defs>
<linearGradient id="paint0_linear_5005_26808" x1="16.9059" y1="6.16992" x2="20.7017" y2="6.22018" gradientUnits="userSpaceOnUse">
<stop stop-color="#0096F2"/>
<stop offset="1" stop-color="#7AE6F4"/>
</linearGradient>
<linearGradient id="paint1_linear_5005_26808" x1="3.43614" y1="6.22022" x2="7.16969" y2="6.26884" gradientUnits="userSpaceOnUse">
<stop stop-color="#0096F2"/>
<stop offset="1" stop-color="#7AE6F4"/>
</linearGradient>
<linearGradient id="paint2_linear_5005_26808" x1="8.07525" y1="20.9399" x2="15.701" y2="22.3414" gradientUnits="userSpaceOnUse">
<stop stop-color="#0096F2"/>
<stop offset="1" stop-color="#7AE6F4"/>
</linearGradient>
<linearGradient id="paint3_linear_5005_26808" x1="9.19574" y1="2.14014" x2="14.9601" y2="2.26838" gradientUnits="userSpaceOnUse">
<stop stop-color="#0096F2"/>
<stop offset="1" stop-color="#7AE6F4"/>
</linearGradient>
<linearGradient id="paint4_linear_5005_26808" x1="1.96723" y1="14.3599" x2="7.73163" y2="14.4881" gradientUnits="userSpaceOnUse">
<stop stop-color="#0096F2"/>
<stop offset="1" stop-color="#7AE6F4"/>
</linearGradient>
<linearGradient id="paint5_linear_5005_26808" x1="16.3071" y1="14.3599" x2="22.0715" y2="14.4881" gradientUnits="userSpaceOnUse">
<stop stop-color="#0096F2"/>
<stop offset="1" stop-color="#7AE6F4"/>
</linearGradient>
</defs>
</svg>
