<svg width="24" height="24" viewBox="0 0 24 24" fill="none" xmlns="http://www.w3.org/2000/svg">
<path d="M22 16.7397V4.6697C22 3.4697 21.02 2.5797 19.83 2.6797H19.77C17.67 2.8597 14.48 3.9297 12.7 5.0497L12.53 5.1597C12.24 5.3397 11.76 5.3397 11.47 5.1597L11.22 5.0097C9.44 3.8997 6.26 2.8397 4.16 2.6697C2.97 2.5697 2 3.4697 2 4.6597V16.7397C2 17.6997 2.78 18.5997 3.74 18.7197L4.03 18.7597C6.2 19.0497 9.55 20.1497 11.47 21.1997L11.51 21.2197C11.78 21.3697 12.21 21.3697 12.47 21.2197C14.39 20.1597 17.75 19.0497 19.93 18.7597L20.26 18.7197C21.22 18.5997 22 17.6997 22 16.7397Z" stroke="url(#paint0_linear_4125_28033)" stroke-width="1.5" stroke-linecap="round" stroke-linejoin="round"/>
<path d="M22 16.7397V4.6697C22 3.4697 21.02 2.5797 19.83 2.6797H19.77C17.67 2.8597 14.48 3.9297 12.7 5.0497L12.53 5.1597C12.24 5.3397 11.76 5.3397 11.47 5.1597L11.22 5.0097C9.44 3.8997 6.26 2.8397 4.16 2.6697C2.97 2.5697 2 3.4697 2 4.6597V16.7397C2 17.6997 2.78 18.5997 3.74 18.7197L4.03 18.7597C6.2 19.0497 9.55 20.1497 11.47 21.1997L11.51 21.2197C11.78 21.3697 12.21 21.3697 12.47 21.2197C14.39 20.1597 17.75 19.0497 19.93 18.7597L20.26 18.7197C21.22 18.5997 22 17.6997 22 16.7397Z" stroke="black" stroke-opacity="0.05" stroke-width="1.5" stroke-linecap="round" stroke-linejoin="round"/>
<path d="M12 5.49023V20.4902" stroke="url(#paint1_linear_4125_28033)" stroke-width="1.5" stroke-linecap="round" stroke-linejoin="round"/>
<path d="M12 5.49023V20.4902" stroke="black" stroke-opacity="0.05" stroke-width="1.5" stroke-linecap="round" stroke-linejoin="round"/>
<path d="M7.75 8.49023H5.5" stroke="url(#paint2_linear_4125_28033)" stroke-width="1.5" stroke-linecap="round" stroke-linejoin="round"/>
<path d="M7.75 8.49023H5.5" stroke="black" stroke-opacity="0.05" stroke-width="1.5" stroke-linecap="round" stroke-linejoin="round"/>
<path d="M8.5 11.4902H5.5" stroke="url(#paint3_linear_4125_28033)" stroke-width="1.5" stroke-linecap="round" stroke-linejoin="round"/>
<path d="M8.5 11.4902H5.5" stroke="black" stroke-opacity="0.05" stroke-width="1.5" stroke-linecap="round" stroke-linejoin="round"/>
<defs>
<linearGradient id="paint0_linear_4125_28033" x1="1.69945" y1="2.66211" x2="22.4332" y2="3.15625" gradientUnits="userSpaceOnUse">
<stop stop-color="#0096F2"/>
<stop offset="1" stop-color="#7AE6F4"/>
</linearGradient>
<linearGradient id="paint1_linear_4125_28033" x1="11.985" y1="5.49024" x2="13.0222" y2="5.49177" gradientUnits="userSpaceOnUse">
<stop stop-color="#0096F2"/>
<stop offset="1" stop-color="#7AE6F4"/>
</linearGradient>
<linearGradient id="paint2_linear_4125_28033" x1="5.46619" y1="8.49023" x2="7.79422" y2="8.60677" gradientUnits="userSpaceOnUse">
<stop stop-color="#0096F2"/>
<stop offset="1" stop-color="#7AE6F4"/>
</linearGradient>
<linearGradient id="paint3_linear_4125_28033" x1="5.45492" y1="11.4902" x2="8.55294" y2="11.697" gradientUnits="userSpaceOnUse">
<stop stop-color="#0096F2"/>
<stop offset="1" stop-color="#7AE6F4"/>
</linearGradient>
</defs>
</svg>
