<svg width="24" height="24" viewBox="0 0 24 24" fill="none" xmlns="http://www.w3.org/2000/svg">
<path d="M17.5401 8.31063C18.8987 8.31063 20.0001 7.20925 20.0001 5.85062C20.0001 4.492 18.8987 3.39062 17.5401 3.39062C16.1814 3.39062 15.0801 4.492 15.0801 5.85062C15.0801 7.20925 16.1814 8.31063 17.5401 8.31063Z" stroke="url(#paint0_linear_4125_28014)" stroke-width="1.5" stroke-miterlimit="10" stroke-linecap="round" stroke-linejoin="round"/>
<path d="M17.5401 8.31063C18.8987 8.31063 20.0001 7.20925 20.0001 5.85062C20.0001 4.492 18.8987 3.39062 17.5401 3.39062C16.1814 3.39062 15.0801 4.492 15.0801 5.85062C15.0801 7.20925 16.1814 8.31063 17.5401 8.31063Z" stroke="black" stroke-opacity="0.05" stroke-width="1.5" stroke-miterlimit="10" stroke-linecap="round" stroke-linejoin="round"/>
<path d="M6.46001 8.31063C7.81863 8.31063 8.92 7.20925 8.92 5.85062C8.92 4.492 7.81863 3.39062 6.46001 3.39062C5.10139 3.39062 4 4.492 4 5.85062C4 7.20925 5.10139 8.31063 6.46001 8.31063Z" stroke="url(#paint1_linear_4125_28014)" stroke-width="1.5" stroke-miterlimit="10" stroke-linecap="round" stroke-linejoin="round"/>
<path d="M6.46001 8.31063C7.81863 8.31063 8.92 7.20925 8.92 5.85062C8.92 4.492 7.81863 3.39062 6.46001 3.39062C5.10139 3.39062 4 4.492 4 5.85062C4 7.20925 5.10139 8.31063 6.46001 8.31063Z" stroke="black" stroke-opacity="0.05" stroke-width="1.5" stroke-miterlimit="10" stroke-linecap="round" stroke-linejoin="round"/>
<path d="M17.5401 20.6114C18.8987 20.6114 20.0001 19.51 20.0001 18.1514C20.0001 16.7928 18.8987 15.6914 17.5401 15.6914C16.1814 15.6914 15.0801 16.7928 15.0801 18.1514C15.0801 19.51 16.1814 20.6114 17.5401 20.6114Z" stroke="url(#paint2_linear_4125_28014)" stroke-width="1.5" stroke-miterlimit="10" stroke-linecap="round" stroke-linejoin="round"/>
<path d="M17.5401 20.6114C18.8987 20.6114 20.0001 19.51 20.0001 18.1514C20.0001 16.7928 18.8987 15.6914 17.5401 15.6914C16.1814 15.6914 15.0801 16.7928 15.0801 18.1514C15.0801 19.51 16.1814 20.6114 17.5401 20.6114Z" stroke="black" stroke-opacity="0.05" stroke-width="1.5" stroke-miterlimit="10" stroke-linecap="round" stroke-linejoin="round"/>
<path d="M6.46001 20.6114C7.81863 20.6114 8.92 19.51 8.92 18.1514C8.92 16.7928 7.81863 15.6914 6.46001 15.6914C5.10139 15.6914 4 16.7928 4 18.1514C4 19.51 5.10139 20.6114 6.46001 20.6114Z" stroke="url(#paint3_linear_4125_28014)" stroke-width="1.5" stroke-miterlimit="10" stroke-linecap="round" stroke-linejoin="round"/>
<path d="M6.46001 20.6114C7.81863 20.6114 8.92 19.51 8.92 18.1514C8.92 16.7928 7.81863 15.6914 6.46001 15.6914C5.10139 15.6914 4 16.7928 4 18.1514C4 19.51 5.10139 20.6114 6.46001 20.6114Z" stroke="black" stroke-opacity="0.05" stroke-width="1.5" stroke-miterlimit="10" stroke-linecap="round" stroke-linejoin="round"/>
<defs>
<linearGradient id="paint0_linear_4125_28014" x1="15.0061" y1="3.39063" x2="20.107" y2="3.50411" gradientUnits="userSpaceOnUse">
<stop stop-color="#0096F2"/>
<stop offset="1" stop-color="#7AE6F4"/>
</linearGradient>
<linearGradient id="paint1_linear_4125_28014" x1="3.92607" y1="3.39063" x2="9.02693" y2="3.50411" gradientUnits="userSpaceOnUse">
<stop stop-color="#0096F2"/>
<stop offset="1" stop-color="#7AE6F4"/>
</linearGradient>
<linearGradient id="paint2_linear_4125_28014" x1="15.0061" y1="15.6914" x2="20.107" y2="15.8049" gradientUnits="userSpaceOnUse">
<stop stop-color="#0096F2"/>
<stop offset="1" stop-color="#7AE6F4"/>
</linearGradient>
<linearGradient id="paint3_linear_4125_28014" x1="3.92607" y1="15.6914" x2="9.02693" y2="15.8049" gradientUnits="userSpaceOnUse">
<stop stop-color="#0096F2"/>
<stop offset="1" stop-color="#7AE6F4"/>
</linearGradient>
</defs>
</svg>
