<svg  viewBox="0 0 24 24" fill="none" xmlns="http://www.w3.org/2000/svg">
<path d="M15.2282 19.583C15.0069 19.5688 14.8099 19.4334 14.7155 19.239C14.6216 19.0365 14.6364 18.8081 14.7638 18.6198L15.7169 17.2478C15.9075 16.9734 16.2909 16.8997 16.5749 17.0899C16.8589 17.2801 16.9248 17.661 16.7337 17.9435L16.4886 18.2963C18.7852 17.9112 20.6129 15.9975 20.7692 13.5837C20.7909 13.2494 21.0875 12.99 21.4236 13.0115C21.7596 13.0331 22.0204 13.3282 21.9987 13.6625C21.7646 17.1522 18.7283 19.8073 15.2282 19.583Z" fill="url(#paint0_linear_4125_28012)"/>
<path d="M15.2282 19.583C15.0069 19.5688 14.8099 19.4334 14.7155 19.239C14.6216 19.0365 14.6364 18.8081 14.7638 18.6198L15.7169 17.2478C15.9075 16.9734 16.2909 16.8997 16.5749 17.0899C16.8589 17.2801 16.9248 17.661 16.7337 17.9435L16.4886 18.2963C18.7852 17.9112 20.6129 15.9975 20.7692 13.5837C20.7909 13.2494 21.0875 12.99 21.4236 13.0115C21.7596 13.0331 22.0204 13.3282 21.9987 13.6625C21.7646 17.1522 18.7283 19.8073 15.2282 19.583Z" fill="black" fill-opacity="0.05"/>
<path fill-rule="evenodd" clip-rule="evenodd" d="M16.84 17.6461C16.8587 17.4331 16.7664 17.2181 16.5749 17.0899C16.2909 16.8997 15.9075 16.9734 15.7169 17.2478L14.7638 18.6198C14.6364 18.8081 14.6216 19.0365 14.7155 19.239C14.8099 19.4334 15.0069 19.5688 15.2282 19.583C18.7283 19.8073 21.7646 17.1522 21.9987 13.6625C22.0204 13.3282 21.7596 13.0331 21.4236 13.0115C21.0875 12.99 20.7909 13.2494 20.7692 13.5837C20.6317 15.7077 19.2001 17.4444 17.2935 18.0932C17.218 18.1189 17.1417 18.1429 17.0647 18.1652C17.0627 18.1658 17.0607 18.1664 17.0586 18.1669C16.8724 18.2205 16.6822 18.2638 16.4886 18.2963L16.7337 17.9435C16.7959 17.8515 16.8309 17.749 16.84 17.6461ZM16.2674 17.6291C16.2788 17.6115 16.2806 17.5947 16.2782 17.5819C16.276 17.5698 16.2707 17.5617 16.2604 17.5548C16.2464 17.5454 16.2309 17.5424 16.2147 17.5454C16.1981 17.5485 16.187 17.5567 16.1803 17.5664L15.23 18.9343C15.2213 18.9477 15.2189 18.9579 15.2184 18.9654C15.2178 18.9727 15.2186 18.9837 15.2245 18.9985C15.2277 19.0038 15.233 19.0098 15.2407 19.015C15.2497 19.0211 15.2582 19.0234 15.2645 19.0238C15.2753 19.0245 15.2862 19.0252 15.2971 19.0258L16.2674 17.6291Z" fill="url(#paint1_linear_4125_28012)"/>
<path fill-rule="evenodd" clip-rule="evenodd" d="M16.84 17.6461C16.8587 17.4331 16.7664 17.2181 16.5749 17.0899C16.2909 16.8997 15.9075 16.9734 15.7169 17.2478L14.7638 18.6198C14.6364 18.8081 14.6216 19.0365 14.7155 19.239C14.8099 19.4334 15.0069 19.5688 15.2282 19.583C18.7283 19.8073 21.7646 17.1522 21.9987 13.6625C22.0204 13.3282 21.7596 13.0331 21.4236 13.0115C21.0875 12.99 20.7909 13.2494 20.7692 13.5837C20.6317 15.7077 19.2001 17.4444 17.2935 18.0932C17.218 18.1189 17.1417 18.1429 17.0647 18.1652C17.0627 18.1658 17.0607 18.1664 17.0586 18.1669C16.8724 18.2205 16.6822 18.2638 16.4886 18.2963L16.7337 17.9435C16.7959 17.8515 16.8309 17.749 16.84 17.6461ZM16.2674 17.6291C16.2788 17.6115 16.2806 17.5947 16.2782 17.5819C16.276 17.5698 16.2707 17.5617 16.2604 17.5548C16.2464 17.5454 16.2309 17.5424 16.2147 17.5454C16.1981 17.5485 16.187 17.5567 16.1803 17.5664L15.23 18.9343C15.2213 18.9477 15.2189 18.9579 15.2184 18.9654C15.2178 18.9727 15.2186 18.9837 15.2245 18.9985C15.2277 19.0038 15.233 19.0098 15.2407 19.015C15.2497 19.0211 15.2582 19.0234 15.2645 19.0238C15.2753 19.0245 15.2862 19.0252 15.2971 19.0258L16.2674 17.6291Z" fill="black" fill-opacity="0.05"/>
<path d="M4.11225 7.27567C3.7897 7.17935 3.60251 6.83337 3.69933 6.51247C4.70766 3.17049 8.2672 1.26437 11.6265 2.26751C11.8389 2.33094 12.0001 2.50708 12.0481 2.71763C12.0937 2.93601 12.0276 3.15516 11.8608 3.31011L10.6214 4.43309C10.3736 4.65769 9.98336 4.64355 9.74974 4.39461C9.51611 4.14568 9.53819 3.75981 9.78841 3.52738L10.1071 3.23862C7.78229 3.09895 5.56814 4.55365 4.86916 6.87034C4.78257 7.18576 4.43481 7.37199 4.11225 7.27567Z" fill="url(#paint2_linear_4125_28012)"/>
<path d="M4.11225 7.27567C3.7897 7.17935 3.60251 6.83337 3.69933 6.51247C4.70766 3.17049 8.2672 1.26437 11.6265 2.26751C11.8389 2.33094 12.0001 2.50708 12.0481 2.71763C12.0937 2.93601 12.0276 3.15516 11.8608 3.31011L10.6214 4.43309C10.3736 4.65769 9.98336 4.64355 9.74974 4.39461C9.51611 4.14568 9.53819 3.75981 9.78841 3.52738L10.1071 3.23862C7.78229 3.09895 5.56814 4.55365 4.86916 6.87034C4.78257 7.18576 4.43481 7.37199 4.11225 7.27567Z" fill="black" fill-opacity="0.05"/>
<path fill-rule="evenodd" clip-rule="evenodd" d="M9.61747 3.79332C9.55094 3.99666 9.59221 4.22677 9.74974 4.39461C9.98336 4.64355 10.3736 4.65769 10.6214 4.43309L11.8608 3.31011C12.0276 3.15516 12.0937 2.93601 12.0481 2.71763C12.0001 2.50708 11.8389 2.33094 11.6265 2.26751C8.2672 1.26437 4.70766 3.17049 3.69933 6.51247C3.60251 6.83337 3.7897 7.17935 4.11225 7.27567C4.43481 7.37199 4.78257 7.18576 4.86916 6.87034C5.48421 4.83183 7.2724 3.46073 9.27685 3.256C9.35627 3.24789 9.43603 3.24161 9.51607 3.23719C9.51819 3.23707 9.52031 3.23696 9.52243 3.23684C9.71597 3.2264 9.91115 3.22684 10.1071 3.23862L9.78841 3.52738C9.7069 3.60309 9.64961 3.69508 9.61747 3.79332ZM10.1714 3.93824C10.1564 3.9528 10.1508 3.96875 10.1502 3.9818C10.1496 3.99404 10.1529 4.00318 10.1614 4.01221C10.173 4.02451 10.1874 4.03089 10.2038 4.03158C10.2207 4.03228 10.2334 4.02678 10.2422 4.01884L11.4778 2.89917C11.4894 2.88805 11.4939 2.8786 11.4962 2.87143C11.4984 2.86446 11.5002 2.85357 11.4978 2.83788C11.4958 2.83199 11.492 2.82487 11.4857 2.81811C11.4782 2.81013 11.4705 2.80599 11.4645 2.8042C11.4541 2.80108 11.4437 2.798 11.4332 2.79494L10.1714 3.93824ZM11.257 2.74634C8.25789 1.96914 5.13695 3.69673 4.23879 6.67357C4.23594 6.68301 4.23584 6.69672 4.24448 6.7127C4.25313 6.72868 4.26469 6.73615 4.27418 6.73899C4.28431 6.74201 4.29807 6.74159 4.31223 6.73401C4.31883 6.73047 4.32276 6.72671 4.32457 6.72452C4.32541 6.7235 4.32578 6.72281 4.32578 6.72281L4.32768 6.71595L4.3297 6.70925C5.10604 4.13618 7.56318 2.52442 10.1411 2.6793L11.257 2.74634Z" fill="url(#paint3_linear_4125_28012)"/>
<path fill-rule="evenodd" clip-rule="evenodd" d="M9.61747 3.79332C9.55094 3.99666 9.59221 4.22677 9.74974 4.39461C9.98336 4.64355 10.3736 4.65769 10.6214 4.43309L11.8608 3.31011C12.0276 3.15516 12.0937 2.93601 12.0481 2.71763C12.0001 2.50708 11.8389 2.33094 11.6265 2.26751C8.2672 1.26437 4.70766 3.17049 3.69933 6.51247C3.60251 6.83337 3.7897 7.17935 4.11225 7.27567C4.43481 7.37199 4.78257 7.18576 4.86916 6.87034C5.48421 4.83183 7.2724 3.46073 9.27685 3.256C9.35627 3.24789 9.43603 3.24161 9.51607 3.23719C9.51819 3.23707 9.52031 3.23696 9.52243 3.23684C9.71597 3.2264 9.91115 3.22684 10.1071 3.23862L9.78841 3.52738C9.7069 3.60309 9.64961 3.69508 9.61747 3.79332ZM10.1714 3.93824C10.1564 3.9528 10.1508 3.96875 10.1502 3.9818C10.1496 3.99404 10.1529 4.00318 10.1614 4.01221C10.173 4.02451 10.1874 4.03089 10.2038 4.03158C10.2207 4.03228 10.2334 4.02678 10.2422 4.01884L11.4778 2.89917C11.4894 2.88805 11.4939 2.8786 11.4962 2.87143C11.4984 2.86446 11.5002 2.85357 11.4978 2.83788C11.4958 2.83199 11.492 2.82487 11.4857 2.81811C11.4782 2.81013 11.4705 2.80599 11.4645 2.8042C11.4541 2.80108 11.4437 2.798 11.4332 2.79494L10.1714 3.93824ZM11.257 2.74634C8.25789 1.96914 5.13695 3.69673 4.23879 6.67357C4.23594 6.68301 4.23584 6.69672 4.24448 6.7127C4.25313 6.72868 4.26469 6.73615 4.27418 6.73899C4.28431 6.74201 4.29807 6.74159 4.31223 6.73401C4.31883 6.73047 4.32276 6.72671 4.32457 6.72452C4.32541 6.7235 4.32578 6.72281 4.32578 6.72281L4.32768 6.71595L4.3297 6.70925C5.10604 4.13618 7.56318 2.52442 10.1411 2.6793L11.257 2.74634Z" fill="black" fill-opacity="0.05"/>
<path d="M7.85767 20.7759C4.7507 20.7759 2.2253 18.2635 2.2253 15.1725C2.2253 12.0815 4.7507 9.56905 7.85767 9.56905C10.9647 9.56905 13.4901 12.0815 13.4901 15.1725C13.4901 18.2635 10.9647 20.7759 7.85767 20.7759ZM7.85767 10.3509C5.18557 10.3509 3.01121 12.5141 3.01121 15.1725C3.01121 17.8308 5.18557 19.994 7.85767 19.994C10.5298 19.994 12.7041 17.8308 12.7041 15.1725C12.7041 12.5141 10.5298 10.3509 7.85767 10.3509Z" fill="url(#paint4_linear_4125_28012)"/>
<path d="M7.85767 20.7759C4.7507 20.7759 2.2253 18.2635 2.2253 15.1725C2.2253 12.0815 4.7507 9.56905 7.85767 9.56905C10.9647 9.56905 13.4901 12.0815 13.4901 15.1725C13.4901 18.2635 10.9647 20.7759 7.85767 20.7759ZM7.85767 10.3509C5.18557 10.3509 3.01121 12.5141 3.01121 15.1725C3.01121 17.8308 5.18557 19.994 7.85767 19.994C10.5298 19.994 12.7041 17.8308 12.7041 15.1725C12.7041 12.5141 10.5298 10.3509 7.85767 10.3509Z" fill="black" fill-opacity="0.05"/>
<path fill-rule="evenodd" clip-rule="evenodd" d="M7.85767 21C4.62627 21 2 18.3872 2 15.1725C2 11.9577 4.62627 9.34491 7.85767 9.34491C11.0891 9.34491 13.7154 11.9577 13.7154 15.1725C13.7154 18.3872 11.0891 21 7.85767 21ZM7.85767 10.5751C5.31 10.5751 3.2365 12.6379 3.2365 15.1725C3.2365 17.707 5.31 19.7699 7.85767 19.7699C10.4054 19.7699 12.4788 17.707 12.4788 15.1725C12.4788 12.6379 10.4054 10.5751 7.85767 10.5751ZM2.2253 15.1725C2.2253 18.2635 4.7507 20.7759 7.85767 20.7759C10.9647 20.7759 13.4901 18.2635 13.4901 15.1725C13.4901 12.0815 10.9647 9.56905 7.85767 9.56905C4.7507 9.56905 2.2253 12.0815 2.2253 15.1725ZM3.01121 15.1725C3.01121 12.5141 5.18557 10.3509 7.85767 10.3509C10.5298 10.3509 12.7041 12.5141 12.7041 15.1725C12.7041 17.8308 10.5298 19.994 7.85767 19.994C5.18557 19.994 3.01121 17.8308 3.01121 15.1725Z" fill="url(#paint5_linear_4125_28012)"/>
<path fill-rule="evenodd" clip-rule="evenodd" d="M7.85767 21C4.62627 21 2 18.3872 2 15.1725C2 11.9577 4.62627 9.34491 7.85767 9.34491C11.0891 9.34491 13.7154 11.9577 13.7154 15.1725C13.7154 18.3872 11.0891 21 7.85767 21ZM7.85767 10.5751C5.31 10.5751 3.2365 12.6379 3.2365 15.1725C3.2365 17.707 5.31 19.7699 7.85767 19.7699C10.4054 19.7699 12.4788 17.707 12.4788 15.1725C12.4788 12.6379 10.4054 10.5751 7.85767 10.5751ZM2.2253 15.1725C2.2253 18.2635 4.7507 20.7759 7.85767 20.7759C10.9647 20.7759 13.4901 18.2635 13.4901 15.1725C13.4901 12.0815 10.9647 9.56905 7.85767 9.56905C4.7507 9.56905 2.2253 12.0815 2.2253 15.1725ZM3.01121 15.1725C3.01121 12.5141 5.18557 10.3509 7.85767 10.3509C10.5298 10.3509 12.7041 12.5141 12.7041 15.1725C12.7041 17.8308 10.5298 19.994 7.85767 19.994C5.18557 19.994 3.01121 17.8308 3.01121 15.1725Z" fill="black" fill-opacity="0.05"/>
<path d="M17.7143 9.75564C15.8502 9.75564 14.3349 8.2482 14.3349 6.3936C14.3349 4.539 15.8502 3.03155 17.7143 3.03155C19.5785 3.03155 21.0938 4.539 21.0938 6.3936C21.0938 8.2482 19.5785 9.75564 17.7143 9.75564ZM17.7143 3.50068C16.1111 3.50068 14.8065 4.79858 14.8065 6.3936C14.8065 7.98862 16.1111 9.28652 17.7143 9.28652C19.3176 9.28652 20.6222 7.98862 20.6222 6.3936C20.6222 4.79858 19.3176 3.50068 17.7143 3.50068Z" fill="url(#paint6_linear_4125_28012)"/>
<path d="M17.7143 9.75564C15.8502 9.75564 14.3349 8.2482 14.3349 6.3936C14.3349 4.539 15.8502 3.03155 17.7143 3.03155C19.5785 3.03155 21.0938 4.539 21.0938 6.3936C21.0938 8.2482 19.5785 9.75564 17.7143 9.75564ZM17.7143 3.50068C16.1111 3.50068 14.8065 4.79858 14.8065 6.3936C14.8065 7.98862 16.1111 9.28652 17.7143 9.28652C19.3176 9.28652 20.6222 7.98862 20.6222 6.3936C20.6222 4.79858 19.3176 3.50068 17.7143 3.50068Z" fill="black" fill-opacity="0.05"/>
<path fill-rule="evenodd" clip-rule="evenodd" d="M17.7143 10.0358C15.6946 10.0358 14.0533 8.40293 14.0533 6.3936C14.0533 4.38427 15.6946 2.75138 17.7143 2.75138C19.7341 2.75138 21.3754 4.38427 21.3754 6.3936C21.3754 8.40293 19.7341 10.0358 17.7143 10.0358ZM17.7143 3.78085C16.2666 3.78085 15.0881 4.95332 15.0881 6.3936C15.0881 7.83388 16.2666 9.00635 17.7143 9.00635C19.1621 9.00635 20.3406 7.83388 20.3406 6.3936C20.3406 4.95332 19.1621 3.78085 17.7143 3.78085ZM14.3349 6.3936C14.3349 8.2482 15.8502 9.75564 17.7143 9.75564C19.5785 9.75564 21.0938 8.2482 21.0938 6.3936C21.0938 4.539 19.5785 3.03155 17.7143 3.03155C15.8502 3.03155 14.3349 4.539 14.3349 6.3936ZM14.8065 6.3936C14.8065 4.79858 16.1111 3.50068 17.7143 3.50068C19.3176 3.50068 20.6222 4.79858 20.6222 6.3936C20.6222 7.98862 19.3176 9.28652 17.7143 9.28652C16.1111 9.28652 14.8065 7.98862 14.8065 6.3936Z" fill="url(#paint7_linear_4125_28012)"/>
<path fill-rule="evenodd" clip-rule="evenodd" d="M17.7143 10.0358C15.6946 10.0358 14.0533 8.40293 14.0533 6.3936C14.0533 4.38427 15.6946 2.75138 17.7143 2.75138C19.7341 2.75138 21.3754 4.38427 21.3754 6.3936C21.3754 8.40293 19.7341 10.0358 17.7143 10.0358ZM17.7143 3.78085C16.2666 3.78085 15.0881 4.95332 15.0881 6.3936C15.0881 7.83388 16.2666 9.00635 17.7143 9.00635C19.1621 9.00635 20.3406 7.83388 20.3406 6.3936C20.3406 4.95332 19.1621 3.78085 17.7143 3.78085ZM14.3349 6.3936C14.3349 8.2482 15.8502 9.75564 17.7143 9.75564C19.5785 9.75564 21.0938 8.2482 21.0938 6.3936C21.0938 4.539 19.5785 3.03155 17.7143 3.03155C15.8502 3.03155 14.3349 4.539 14.3349 6.3936ZM14.8065 6.3936C14.8065 4.79858 16.1111 3.50068 17.7143 3.50068C19.3176 3.50068 20.6222 4.79858 20.6222 6.3936C20.6222 7.98862 19.3176 9.28652 17.7143 9.28652C16.1111 9.28652 14.8065 7.98862 14.8065 6.3936Z" fill="black" fill-opacity="0.05"/>
<defs>
<linearGradient id="paint0_linear_4125_28012" x1="1.69945" y1="2" x2="22.4336" y2="2.48557" gradientUnits="userSpaceOnUse">
<stop stop-color="#0096F2"/>
<stop offset="1" stop-color="#7AE6F4"/>
</linearGradient>
<linearGradient id="paint1_linear_4125_28012" x1="1.69945" y1="2" x2="22.4336" y2="2.48557" gradientUnits="userSpaceOnUse">
<stop stop-color="#0096F2"/>
<stop offset="1" stop-color="#7AE6F4"/>
</linearGradient>
<linearGradient id="paint2_linear_4125_28012" x1="1.69945" y1="2" x2="22.4336" y2="2.48557" gradientUnits="userSpaceOnUse">
<stop stop-color="#0096F2"/>
<stop offset="1" stop-color="#7AE6F4"/>
</linearGradient>
<linearGradient id="paint3_linear_4125_28012" x1="1.69945" y1="2" x2="22.4336" y2="2.48557" gradientUnits="userSpaceOnUse">
<stop stop-color="#0096F2"/>
<stop offset="1" stop-color="#7AE6F4"/>
</linearGradient>
<linearGradient id="paint4_linear_4125_28012" x1="1.69945" y1="2" x2="22.4336" y2="2.48557" gradientUnits="userSpaceOnUse">
<stop stop-color="#0096F2"/>
<stop offset="1" stop-color="#7AE6F4"/>
</linearGradient>
<linearGradient id="paint5_linear_4125_28012" x1="1.69945" y1="2" x2="22.4336" y2="2.48557" gradientUnits="userSpaceOnUse">
<stop stop-color="#0096F2"/>
<stop offset="1" stop-color="#7AE6F4"/>
</linearGradient>
<linearGradient id="paint6_linear_4125_28012" x1="1.69945" y1="2" x2="22.4336" y2="2.48557" gradientUnits="userSpaceOnUse">
<stop stop-color="#0096F2"/>
<stop offset="1" stop-color="#7AE6F4"/>
</linearGradient>
<linearGradient id="paint7_linear_4125_28012" x1="1.69945" y1="2" x2="22.4336" y2="2.48557" gradientUnits="userSpaceOnUse">
<stop stop-color="#0096F2"/>
<stop offset="1" stop-color="#7AE6F4"/>
</linearGradient>
</defs>
</svg>
