<svg  viewBox="0 0 20 19" fill="none" xmlns="http://www.w3.org/2000/svg">
<g clip-path="url(#clip0_5795_51568)">
<path d="M19.8293 1.95885V11.8608C19.8293 12.6018 19.3005 13.2355 18.5525 13.4944C18.4992 13.5131 18.4416 13.4842 18.4239 13.4314C18.4205 13.4211 18.4188 13.4101 18.418 13.3981V6.58703C18.4036 5.83923 18.1497 5.11613 17.6937 4.5259C17.252 3.92374 16.6326 3.47659 15.9244 3.24833L6.51535 0.397667C6.46204 0.381484 6.43158 0.325272 6.44766 0.271614C6.46035 0.228177 6.50012 0.199219 6.54496 0.199219H17.7986C18.9206 0.199219 19.8293 0.987049 19.8293 1.95885Z" fill="#0096F2"/>
<path d="M17.4034 6.58753V16.8378C17.4034 17.8437 16.6105 18.4186 15.6324 18.1214L2.60104 14.1677C1.62291 13.8713 0.830078 12.8161 0.830078 11.8102V1.56245C0.830078 0.806986 1.27599 0.295109 1.91144 0.211642C1.9419 0.207384 1.97321 0.204828 2.00452 0.203125H2.09082C2.26259 0.203125 2.43435 0.229528 2.5985 0.28063L15.629 4.23426C16.6105 4.5281 17.4034 5.58337 17.4034 6.58753Z" fill="url(#paint0_linear_5795_51568)"/>
<path d="M10.4047 12.5105C10.7559 12.4475 11.0368 12.3129 11.2441 12.106C11.4911 11.8607 11.6138 11.5268 11.6138 11.1061C11.6138 10.6453 11.4945 10.2433 11.2559 9.90006C11.0173 9.55682 10.7034 9.25872 10.3159 9.00576C10.139 8.89078 9.93426 8.76728 9.70411 8.63782C9.63557 7.91643 9.58396 7.1073 9.55519 6.20279C9.65842 6.282 9.75149 6.36547 9.83526 6.45575C10.1602 6.8075 10.3226 7.24358 10.3226 7.76482L11.415 8.08166C11.415 7.3066 11.1645 6.64909 10.6628 6.10995C10.37 5.79567 9.99349 5.52398 9.53319 5.29402C9.52896 5.01721 9.52642 4.73274 9.52642 4.43975L8.93412 4.26941V5.0368C8.76997 4.97633 8.59821 4.92012 8.41883 4.86731C8.26822 4.82387 8.12353 4.7881 7.98222 4.76V3.99261L7.38992 3.82227C7.38992 4.11951 7.38739 4.40569 7.38316 4.68334C7.23339 4.67653 7.09039 4.67908 6.95586 4.69356C6.53702 4.7387 6.2138 4.87753 5.98703 5.1092C5.75942 5.34086 5.64604 5.64662 5.64604 6.02734C5.64604 6.4813 5.76196 6.87564 5.99295 7.21036C6.22395 7.54423 6.5311 7.83892 6.91524 8.09443C6.99647 8.14809 7.08447 8.2043 7.1767 8.26052C7.08532 9.06623 6.97109 9.72716 6.84417 10.2714C6.68932 9.9733 6.60979 9.63432 6.60979 9.25361L5.49373 8.92996C5.49373 9.74504 5.76788 10.446 6.31618 11.0328C6.39233 11.1137 6.47271 11.1921 6.55648 11.2679C6.02172 12.7626 5.42773 12.7746 5.42773 12.7746L7.98222 13.5121V12.1247C8.18275 12.2048 8.39514 12.278 8.61852 12.3428C8.72682 12.3743 8.8309 12.4007 8.93412 12.4254V13.7855L11.4886 14.5231C11.4886 14.5231 10.9268 14.1884 10.4047 12.5122V12.5105ZM10.2812 10.1581C10.4259 10.354 10.4986 10.5789 10.4986 10.8327C10.4986 11.1717 10.381 11.411 10.1492 11.5532C10.0307 11.0371 9.92072 10.4324 9.82765 9.72801C10.018 9.86428 10.1695 10.0074 10.2812 10.1581ZM8.40698 5.65599C8.59736 5.71135 8.77167 5.77523 8.93412 5.84592V8.229C8.87997 8.20175 8.82667 8.17449 8.77082 8.14639C8.46621 7.99393 8.20391 7.85596 7.98222 7.73161V5.55975C8.11422 5.58104 8.25552 5.6117 8.40698 5.65599ZM6.96178 6.94548C6.82048 6.75385 6.75025 6.53496 6.75025 6.28796C6.75025 5.94728 6.89747 5.71902 7.19108 5.60404C7.24439 5.5836 7.30193 5.56827 7.36285 5.55634C7.34254 6.17809 7.31123 6.74703 7.27062 7.26572C7.14539 7.16096 7.04216 7.0545 6.96178 6.94548ZM8.62952 11.5532C8.39429 11.4851 8.17852 11.4025 7.98222 11.3079V8.71533C8.13114 8.79369 8.28768 8.87375 8.45352 8.95636C8.62782 9.04494 8.7869 9.12841 8.93412 9.20676V11.6299C8.83682 11.6086 8.73613 11.5839 8.62952 11.5532Z" fill="white"/>
</g>
<defs>
<linearGradient id="paint0_linear_5795_51568" x1="6.35873" y1="15.8652" x2="15.8564" y2="-6.79285" gradientUnits="userSpaceOnUse">
<stop stop-color="#0096F2"/>
<stop offset="0.53" stop-color="#7AE6F4"/>
</linearGradient>
<clipPath id="clip0_5795_51568">
<rect width="19" height="18" fill="white" transform="translate(0.830078 0.199219)"/>
</clipPath>
</defs>
</svg>
